<svg id="fdc58920-10c0-454b-917a-6603ca2da71a" data-name="object" xmlns="http://www.w3.org/2000/svg" viewBox="0 0 258.07 158.73"><title>logo</title><g id="ad6cd805-7ef3-4558-b7c6-3a3acbbd7a29" data-name="Around Town"><text transform="translate(0.3 134.16)" font-size="49.24" fill="#e44025" font-family="NexaRustScriptL-0, Nexa Rust Script L">Ar<tspan x="50.87" y="0" letter-spacing="0.06em">o</tspan><tspan x="73.37" y="0" letter-spacing="-0.01em">u</tspan><tspan x="96.36" y="0" letter-spacing="-0.01em">n</tspan><tspan x="118.77" y="0">d </tspan><tspan x="152.45" y="0" letter-spacing="-0.16em">T</tspan><tspan x="178.3" y="0" letter-spacing="0.09em">o</tspan><tspan x="202.23" y="0" letter-spacing="0.02em">w</tspan><tspan x="233.2" y="0">n</tspan></text></g><polygon points="152.96 16.26 152.96 10.06 150.45 7.43 142.2 7.43 139.44 10.06 139.44 16.26 136.54 16.26 136.54 61.12 155.6 61.12 155.6 16.26 152.96 16.26" fill="#3a2c81"/><rect x="138.96" y="40.7" width="14.22" height="1.24" fill="#fff"/><rect x="138.96" y="38" width="14.22" height="1.24" fill="#fff"/><rect x="138.96" y="35.29" width="14.22" height="1.24" fill="#fff"/><rect x="138.96" y="32.58" width="14.22" height="1.24" fill="#fff"/><rect x="138.96" y="29.88" width="14.22" height="1.24" fill="#fff"/><rect x="138.96" y="27.17" width="14.22" height="1.24" fill="#fff"/><rect x="138.96" y="24.46" width="14.22" height="1.24" fill="#fff"/><rect x="138.96" y="21.76" width="14.22" height="1.24" fill="#fff"/><rect x="138.96" y="19.05" width="14.22" height="1.24" fill="#fff"/><rect x="141.32" y="13.65" width="9.49" height="1.24" fill="#fff"/><rect x="141.32" y="11.09" width="9.49" height="1.24" fill="#fff"/><polygon points="199.16 21.34 199.16 15.45 196.78 12.96 188.94 12.96 186.32 15.45 186.32 21.34 183.56 21.34 183.56 58.12 201.67 58.12 201.67 21.34 199.16 21.34" fill="#3a2c81"/><rect x="185.86" y="44.56" width="13.51" height="1.18" fill="#fff"/><rect x="185.86" y="41.99" width="13.51" height="1.18" fill="#fff"/><rect x="185.86" y="39.42" width="13.51" height="1.18" fill="#fff"/><rect x="185.86" y="36.85" width="13.51" height="1.18" fill="#fff"/><rect x="185.86" y="34.28" width="13.51" height="1.18" fill="#fff"/><rect x="185.86" y="31.71" width="13.51" height="1.18" fill="#fff"/><rect x="185.86" y="29.13" width="13.51" height="1.18" fill="#fff"/><rect x="185.86" y="26.56" width="13.51" height="1.18" fill="#fff"/><rect x="185.86" y="23.99" width="13.51" height="1.18" fill="#fff"/><rect x="188.11" y="18.86" width="9.01" height="1.18" fill="#fff"/><rect x="188.11" y="16.43" width="9.01" height="1.18" fill="#fff"/><polygon points="178.57 53.22 158.6 53.22 158.6 25.97 168.58 15.79 178.57 25.97 178.57 53.22" fill="#91193c"/><rect x="163.04" y="27.96" width="4.03" height="4.03" fill="#fff"/><rect x="170.1" y="27.96" width="4.03" height="4.03" fill="#fff"/><rect x="163.04" y="34.36" width="4.03" height="4.03" fill="#fff"/><rect x="170.1" y="34.36" width="4.03" height="4.03" fill="#fff"/><rect x="163.04" y="40.76" width="4.03" height="4.03" fill="#fff"/><rect x="170.1" y="40.76" width="4.03" height="4.03" fill="#fff"/><polygon points="86.71 55.04 66.74 55.04 66.74 27.79 76.72 17.62 86.71 27.79 86.71 55.04" fill="#3a2c81"/><rect x="71.18" y="29.79" width="4.03" height="4.03" fill="#fff"/><rect x="78.24" y="29.79" width="4.03" height="4.03" fill="#fff"/><rect x="71.18" y="36.19" width="4.03" height="4.03" fill="#fff"/><rect x="78.24" y="36.19" width="4.03" height="4.03" fill="#fff"/><rect x="71.18" y="42.59" width="4.03" height="4.03" fill="#fff"/><rect x="78.24" y="42.59" width="4.03" height="4.03" fill="#fff"/><polygon points="130.66 10.13 130.66 3.02 127.79 0 118.32 0 115.15 3.02 115.15 10.13 111.82 10.13 111.82 54.57 133.69 54.57 133.69 10.13 130.66 10.13" fill="#f2b01c"/><rect x="114.59" y="38.19" width="16.32" height="1.43" fill="#fff"/><rect x="114.59" y="35.08" width="16.32" height="1.43" fill="#fff"/><rect x="114.59" y="31.97" width="16.32" height="1.43" fill="#fff"/><rect x="114.59" y="28.87" width="16.32" height="1.43" fill="#fff"/><rect x="114.59" y="25.76" width="16.32" height="1.43" fill="#fff"/><rect x="114.59" y="22.65" width="16.32" height="1.43" fill="#fff"/><rect x="114.59" y="19.55" width="16.32" height="1.43" fill="#fff"/><rect x="114.59" y="16.44" width="16.32" height="1.43" fill="#fff"/><rect x="114.59" y="13.33" width="16.32" height="1.43" fill="#fff"/><rect x="117.31" y="7.14" width="10.89" height="1.43" fill="#fff"/><rect x="117.31" y="4.2" width="10.89" height="1.43" fill="#fff"/><polygon points="102.57 19.98 99.73 19.98 97.37 19.98 94.54 19.98 88.54 25.98 88.54 62.87 97.37 62.87 99.73 62.87 108.57 62.87 108.57 25.98 102.57 19.98" fill="#207dc0"/><rect x="92.2" y="30.27" width="3.14" height="3.14" fill="#fff"/><rect x="97.08" y="30.27" width="3.14" height="3.14" fill="#fff"/><rect x="92.2" y="35.26" width="3.14" height="3.14" fill="#fff"/><rect x="97.08" y="35.26" width="3.14" height="3.14" fill="#fff"/><rect x="101.76" y="30.27" width="3.14" height="3.14" fill="#fff"/><rect x="101.76" y="35.26" width="3.14" height="3.14" fill="#fff"/><rect x="92.2" y="40.24" width="3.14" height="3.14" fill="#fff"/><rect x="97.08" y="40.24" width="3.14" height="3.14" fill="#fff"/><rect x="92.2" y="45.23" width="3.14" height="3.14" fill="#fff"/><rect x="97.08" y="45.23" width="3.14" height="3.14" fill="#fff"/><rect x="101.76" y="40.24" width="3.14" height="3.14" fill="#fff"/><rect x="101.76" y="45.23" width="3.14" height="3.14" fill="#fff"/><rect x="92.2" y="50.21" width="3.14" height="3.14" fill="#fff"/><rect x="97.08" y="50.21" width="3.14" height="3.14" fill="#fff"/><rect x="101.76" y="50.21" width="3.14" height="3.14" fill="#fff"/><path d="M216.2,66.61c-6.85,0-7.87-6.27-7-10.58,1.08-5.59,5.35-13.88,7.45-13.88s6.51,12,6.91,15.38S223.05,66.61,216.2,66.61Z" fill="#c3d737"/><polygon points="220.54 57.67 216.56 61.85 216.47 58.57 219.79 53.9 216.44 57.4 216.35 54.13 218.49 50.95 216.33 53.42 216.14 46.33 215.95 53.35 213.74 50.95 215.93 54.2 215.84 57.32 212.56 53.9 215.81 58.47 215.72 61.78 211.81 57.67 215.69 62.9 215.38 74.31 216.9 74.31 216.59 63 220.54 57.67" fill="#47321f"/><polygon points="53.4 24.61 50.57 24.61 48.2 24.61 45.37 24.61 39.37 30.61 39.37 67.5 48.2 67.5 50.57 67.5 59.4 67.5 59.4 30.61 53.4 24.61" fill="#91193c"/><rect x="43.03" y="34.9" width="3.14" height="3.14" fill="#fff"/><rect x="47.92" y="34.9" width="3.14" height="3.14" fill="#fff"/><rect x="43.03" y="39.89" width="3.14" height="3.14" fill="#fff"/><rect x="47.92" y="39.89" width="3.14" height="3.14" fill="#fff"/><rect x="52.6" y="34.9" width="3.14" height="3.14" fill="#fff"/><rect x="52.6" y="39.89" width="3.14" height="3.14" fill="#fff"/><rect x="43.03" y="44.87" width="3.14" height="3.14" fill="#fff"/><rect x="47.92" y="44.87" width="3.14" height="3.14" fill="#fff"/><rect x="43.03" y="49.87" width="3.14" height="3.14" fill="#fff"/><rect x="47.92" y="49.87" width="3.14" height="3.14" fill="#fff"/><rect x="52.6" y="44.87" width="3.14" height="3.14" fill="#fff"/><rect x="52.6" y="49.87" width="3.14" height="3.14" fill="#fff"/><rect x="43.03" y="54.85" width="3.14" height="3.14" fill="#fff"/><rect x="47.92" y="54.85" width="3.14" height="3.14" fill="#fff"/><rect x="52.6" y="54.85" width="3.14" height="3.14" fill="#fff"/><polygon points="45.14 77.82 25.18 77.82 25.18 50.57 35.16 40.4 45.14 50.57 45.14 77.82" fill="#e44025"/><rect x="29.62" y="52.56" width="4.03" height="4.03" fill="#fff"/><rect x="36.67" y="52.56" width="4.03" height="4.03" fill="#fff"/><rect x="29.62" y="58.96" width="4.03" height="4.03" fill="#fff"/><rect x="36.67" y="58.96" width="4.03" height="4.03" fill="#fff"/><rect x="29.62" y="65.36" width="4.03" height="4.03" fill="#fff"/><rect x="36.67" y="65.36" width="4.03" height="4.03" fill="#fff"/><polygon points="155.54 27.99 152.71 27.99 150.34 27.99 147.51 27.99 141.51 33.99 141.51 70.88 150.34 70.88 152.71 70.88 161.54 70.88 161.54 33.99 155.54 27.99" fill="#f2b01c"/><rect x="145.17" y="38.28" width="3.14" height="3.14" fill="#fff"/><rect x="150.06" y="38.28" width="3.14" height="3.14" fill="#fff"/><rect x="145.17" y="43.27" width="3.14" height="3.14" fill="#fff"/><rect x="150.06" y="43.27" width="3.14" height="3.14" fill="#fff"/><rect x="154.74" y="38.28" width="3.14" height="3.14" fill="#fff"/><rect x="154.74" y="43.27" width="3.14" height="3.14" fill="#fff"/><rect x="145.17" y="48.25" width="3.14" height="3.14" fill="#fff"/><rect x="150.06" y="48.25" width="3.14" height="3.14" fill="#fff"/><rect x="145.17" y="53.25" width="3.14" height="3.14" fill="#fff"/><rect x="150.06" y="53.25" width="3.14" height="3.14" fill="#fff"/><rect x="154.74" y="48.25" width="3.14" height="3.14" fill="#fff"/><rect x="154.74" y="53.25" width="3.14" height="3.14" fill="#fff"/><rect x="145.17" y="58.23" width="3.14" height="3.14" fill="#fff"/><rect x="150.06" y="58.23" width="3.14" height="3.14" fill="#fff"/><rect x="154.74" y="58.23" width="3.14" height="3.14" fill="#fff"/><polygon points="112.72 39.16 112.72 33.27 110.34 30.77 102.5 30.77 99.88 33.27 99.88 39.16 97.12 39.16 97.12 75.94 115.22 75.94 115.22 39.16 112.72 39.16" fill="#e44025"/><text/><rect x="99.42" y="59.81" width="13.51" height="1.18" fill="#fff"/><rect x="99.42" y="57.24" width="13.51" height="1.18" fill="#fff"/><rect x="99.42" y="54.67" width="13.51" height="1.18" fill="#fff"/><rect x="99.42" y="52.09" width="13.51" height="1.18" fill="#fff"/><rect x="99.42" y="49.52" width="13.51" height="1.18" fill="#fff"/><rect x="99.42" y="46.95" width="13.51" height="1.18" fill="#fff"/><rect x="99.42" y="44.38" width="13.51" height="1.18" fill="#fff"/><rect x="99.42" y="41.81" width="13.51" height="1.18" fill="#fff"/><rect x="101.67" y="36.68" width="9.01" height="1.18" fill="#fff"/><rect x="101.67" y="34.25" width="9.01" height="1.18" fill="#fff"/><polygon points="138.59 69.3 118.62 69.3 118.62 42.05 128.61 31.88 138.59 42.05 138.59 69.3" fill="#91193c"/><rect x="123.07" y="44.04" width="4.03" height="4.03" fill="#fff"/><rect x="130.12" y="44.04" width="4.03" height="4.03" fill="#fff"/><rect x="123.07" y="50.44" width="4.03" height="4.03" fill="#fff"/><rect x="130.12" y="50.44" width="4.03" height="4.03" fill="#fff"/><rect x="123.07" y="56.84" width="4.03" height="4.03" fill="#fff"/><rect x="130.12" y="56.84" width="4.03" height="4.03" fill="#fff"/><polygon points="184.24 76.5 164.27 76.5 164.27 49.24 174.26 39.08 184.24 49.24 184.24 76.5" fill="#e44025"/><rect x="168.72" y="51.24" width="4.03" height="4.03" fill="#fff"/><rect x="175.77" y="51.24" width="4.03" height="4.03" fill="#fff"/><rect x="168.72" y="57.64" width="4.03" height="4.03" fill="#fff"/><rect x="175.77" y="57.64" width="4.03" height="4.03" fill="#fff"/><rect x="168.72" y="64.04" width="4.03" height="4.03" fill="#fff"/><rect x="175.77" y="64.04" width="4.03" height="4.03" fill="#fff"/><polygon points="213.19 75.03 193.22 75.03 193.22 47.78 203.21 37.61 213.19 47.78 213.19 75.03" fill="#207dc0"/><rect x="197.67" y="49.77" width="4.03" height="4.03" fill="#fff"/><rect x="204.72" y="49.77" width="4.03" height="4.03" fill="#fff"/><rect x="197.67" y="56.17" width="4.03" height="4.03" fill="#fff"/><rect x="204.72" y="56.17" width="4.03" height="4.03" fill="#fff"/><rect x="197.67" y="62.57" width="4.03" height="4.03" fill="#fff"/><rect x="204.72" y="62.57" width="4.03" height="4.03" fill="#fff"/><polygon points="77.39 41.79 77.39 35.9 75.01 33.41 67.17 33.41 64.55 35.9 64.55 41.79 61.79 41.79 61.79 78.57 79.9 78.57 79.9 41.79 77.39 41.79" fill="#f2b01c"/><rect x="64.09" y="65.01" width="13.51" height="1.18" fill="#fff"/><rect x="64.09" y="62.44" width="13.51" height="1.18" fill="#fff"/><rect x="64.09" y="59.87" width="13.51" height="1.18" fill="#fff"/><rect x="64.09" y="57.3" width="13.51" height="1.18" fill="#fff"/><rect x="64.09" y="54.73" width="13.51" height="1.18" fill="#fff"/><rect x="64.09" y="52.16" width="13.51" height="1.18" fill="#fff"/><rect x="64.09" y="49.59" width="13.51" height="1.18" fill="#fff"/><rect x="64.09" y="47.01" width="13.51" height="1.18" fill="#fff"/><rect x="64.09" y="44.44" width="13.51" height="1.18" fill="#fff"/><rect x="66.34" y="39.31" width="9.01" height="1.18" fill="#fff"/><rect x="66.34" y="36.88" width="9.01" height="1.18" fill="#fff"/><path d="M20.38,75c-6.85,0-7.87-6.27-7-10.58,1.08-5.59,5.35-13.89,7.45-13.89s6.51,12,6.91,15.39C28.13,69.4,27.23,75,20.38,75Z" fill="#bcce32"/><polygon points="24.72 66.05 20.74 70.23 20.65 66.95 23.97 62.28 20.62 65.78 20.53 62.51 22.67 59.33 20.51 61.79 20.32 54.71 20.13 61.73 17.92 59.33 20.11 62.58 20.02 65.7 16.74 62.28 19.99 66.85 19.9 70.16 15.99 66.05 19.87 71.28 19.56 81.12 21.08 81.12 20.77 71.37 24.72 66.05" fill="#47321f"/><polygon points="62.24 86.12 40.85 86.12 40.85 69 51.54 58.1 62.24 69 62.24 86.12" fill="#207dc0"/><rect x="45.61" y="71.14" width="4.31" height="4.31" fill="#fff"/><rect x="53.16" y="71.14" width="4.31" height="4.31" fill="#fff"/><rect x="45.61" y="77.99" width="4.31" height="4.31" fill="#fff"/><rect x="53.16" y="77.99" width="4.31" height="4.31" fill="#fff"/><path d="M198.17,77.48c-6.86,0-7.87-6.27-7-10.58,1.09-5.59,5.35-13.88,7.46-13.88s6.51,12,6.91,15.39S205,77.48,198.17,77.48Z" fill="#c3d737"/><polygon points="202.51 68.55 198.53 72.73 198.44 69.44 201.76 64.78 198.41 68.27 198.32 65 200.46 61.83 198.3 64.29 198.11 57.21 197.92 64.22 195.71 61.83 197.9 65.07 197.81 68.19 194.53 64.78 197.78 69.34 197.69 72.65 193.78 68.55 197.66 73.77 197.35 83.62 198.87 83.62 198.56 73.87 202.51 68.55" fill="#47321f"/><path d="M144.56,74.22c-6.85,0-7.86-6.27-7-10.58,1.08-5.59,5.35-13.88,7.46-13.88s6.5,12,6.91,15.39S151.42,74.22,144.56,74.22Z" fill="#c3d737"/><polygon points="148.91 65.29 144.93 69.47 144.84 66.18 148.16 61.51 144.81 65.01 144.72 61.74 146.86 58.56 144.7 61.03 144.51 53.95 144.31 60.96 142.1 58.56 144.29 61.81 144.21 64.94 140.93 61.51 144.18 66.08 144.09 69.39 140.18 65.29 144.05 70.51 143.75 81.92 145.27 81.92 144.96 70.61 148.91 65.29" fill="#47321f"/><path d="M122.63,73.81c-6.86,0-7.87-6.27-7-10.58,1.09-5.59,5.35-13.89,7.46-13.89s6.51,12,6.91,15.39S129.48,73.81,122.63,73.81Z" fill="#c3d737"/><polygon points="126.97 64.87 122.99 69.05 122.9 65.76 126.22 61.1 122.87 64.59 122.78 61.33 124.92 58.15 122.76 60.61 122.57 53.53 122.38 60.55 120.17 58.15 122.35 61.4 122.27 64.52 118.99 61.1 122.24 65.67 122.15 68.98 118.24 64.87 122.12 70.1 121.81 81.5 123.33 81.5 123.02 70.19 126.97 64.87" fill="#47321f"/><path d="M31.56,81.19c-6.85,0-7.86-6.27-7-10.58C25.61,65,29.88,56.72,32,56.72s6.51,12,6.92,15.39S38.42,81.19,31.56,81.19Z" fill="#c3d737"/><polygon points="35.91 72.25 31.93 76.43 31.84 73.14 35.16 68.48 31.81 71.97 31.72 68.7 33.86 65.53 31.7 67.99 31.5 60.91 31.31 67.92 29.1 65.53 31.29 68.78 31.2 71.9 27.93 68.48 31.17 73.05 31.08 76.36 27.18 72.25 31.05 77.48 30.74 87.01 32.27 87.01 31.96 77.57 35.91 72.25" fill="#47321f"/><path d="M229.65,79.53c-6.85,0-7.87-6.27-7-10.58,1.08-5.59,5.35-13.89,7.45-13.89s6.51,12,6.91,15.39S236.5,79.53,229.65,79.53Z" fill="#c3d737"/><polygon points="233.99 70.59 230.01 74.77 229.92 71.48 233.24 66.82 229.89 70.31 229.8 67.05 231.94 63.87 229.78 66.33 229.59 59.25 229.4 66.27 227.19 63.87 229.38 67.12 229.29 70.24 226.01 66.82 229.26 71.38 229.17 74.69 225.26 70.59 229.14 75.82 228.83 85.03 230.35 85.03 230.04 75.91 233.99 70.59" fill="#47321f"/><polygon points="86.75 48.98 83.92 48.98 81.55 48.98 78.72 48.98 72.72 54.98 72.72 91.87 81.55 91.87 83.92 91.87 92.75 91.87 92.75 54.98 86.75 48.98" fill="#e44025"/><rect x="76.38" y="59.27" width="3.14" height="3.14" fill="#fff"/><rect x="81.27" y="59.27" width="3.14" height="3.14" fill="#fff"/><rect x="76.38" y="64.27" width="3.14" height="3.14" fill="#fff"/><rect x="81.27" y="64.27" width="3.14" height="3.14" fill="#fff"/><rect x="85.95" y="59.27" width="3.14" height="3.14" fill="#fff"/><rect x="85.95" y="64.27" width="3.14" height="3.14" fill="#fff"/><rect x="76.38" y="69.25" width="3.14" height="3.14" fill="#fff"/><rect x="81.27" y="69.25" width="3.14" height="3.14" fill="#fff"/><rect x="76.38" y="74.24" width="3.14" height="3.14" fill="#fff"/><rect x="81.27" y="74.24" width="3.14" height="3.14" fill="#fff"/><rect x="85.95" y="69.25" width="3.14" height="3.14" fill="#fff"/><rect x="85.95" y="74.24" width="3.14" height="3.14" fill="#fff"/><rect x="76.38" y="79.22" width="3.14" height="3.14" fill="#fff"/><rect x="81.27" y="79.22" width="3.14" height="3.14" fill="#fff"/><rect x="85.95" y="79.22" width="3.14" height="3.14" fill="#fff"/><polygon points="122.8 87.22 101.41 87.22 101.41 70.09 112.11 59.2 122.8 70.09 122.8 87.22" fill="#f2b01c"/><rect x="106.17" y="72.23" width="4.31" height="4.31" fill="#fff"/><rect x="113.73" y="72.23" width="4.31" height="4.31" fill="#fff"/><rect x="106.17" y="79.09" width="4.31" height="4.31" fill="#fff"/><rect x="113.73" y="79.09" width="4.31" height="4.31" fill="#fff"/><polygon points="144.09 87.18 122.7 87.18 122.7 70.06 133.39 59.16 144.09 70.06 144.09 87.18" fill="#e44025"/><rect x="127.46" y="72.2" width="4.31" height="4.31" fill="#fff"/><rect x="135.01" y="72.2" width="4.31" height="4.31" fill="#fff"/><rect x="127.46" y="79.05" width="4.31" height="4.31" fill="#fff"/><rect x="135.01" y="79.05" width="4.31" height="4.31" fill="#fff"/><polygon points="165.49 87.18 144.1 87.18 144.1 70.06 154.79 59.16 165.49 70.06 165.49 87.18" fill="#207dc0"/><rect x="148.86" y="72.2" width="4.31" height="4.31" fill="#fff"/><rect x="156.41" y="72.2" width="4.31" height="4.31" fill="#fff"/><rect x="148.86" y="79.05" width="4.31" height="4.31" fill="#fff"/><rect x="156.41" y="79.05" width="4.31" height="4.31" fill="#fff"/><path d="M170.7,82c-6.86,0-7.87-6.27-7-10.58,1.08-5.59,5.35-13.88,7.46-13.88s6.51,12,6.91,15.38S177.55,82,170.7,82Z" fill="#c3d737"/><polygon points="175.04 73.06 171.06 77.24 170.97 73.96 174.29 69.29 170.94 72.79 170.85 69.52 172.99 66.34 170.83 68.81 170.64 61.72 170.45 68.74 168.24 66.34 170.42 69.59 170.34 72.71 167.06 69.29 170.31 73.86 170.22 77.17 166.31 73.06 170.19 78.29 169.88 87.51 171.4 87.51 171.09 78.39 175.04 73.06" fill="#47321f"/><path d="M99.59,85.08c-6.85,0-7.87-6.27-7-10.58,1.08-5.59,5.35-13.88,7.45-13.88s6.51,12,6.91,15.39S106.44,85.08,99.59,85.08Z" fill="#c3d737"/><polygon points="103.93 76.15 99.95 80.33 99.86 77.04 103.18 72.37 99.83 75.87 99.74 72.6 101.88 69.42 99.72 71.89 99.53 64.81 99.34 71.82 97.13 69.42 99.32 72.67 99.23 75.79 95.95 72.37 99.2 76.94 99.11 80.25 95.2 76.15 99.08 81.37 98.77 90.28 100.29 90.28 99.98 81.47 103.93 76.15" fill="#47321f"/><polygon points="192.19 54.47 192.19 48.58 189.82 46.09 181.98 46.09 179.35 48.58 179.35 54.47 176.6 54.47 176.6 91.25 194.7 91.25 194.7 54.47 192.19 54.47" fill="#f2b01c"/><rect x="178.9" y="77.69" width="13.51" height="1.18" fill="#fff"/><rect x="178.9" y="75.12" width="13.51" height="1.18" fill="#fff"/><rect x="178.9" y="72.55" width="13.51" height="1.18" fill="#fff"/><rect x="178.9" y="69.98" width="13.51" height="1.18" fill="#fff"/><rect x="178.9" y="67.41" width="13.51" height="1.18" fill="#fff"/><rect x="178.9" y="64.84" width="13.51" height="1.18" fill="#fff"/><rect x="178.9" y="62.26" width="13.51" height="1.18" fill="#fff"/><rect x="178.9" y="59.69" width="13.51" height="1.18" fill="#fff"/><rect x="178.9" y="57.12" width="13.51" height="1.18" fill="#fff"/><rect x="181.14" y="51.99" width="9.01" height="1.18" fill="#fff"/><rect x="181.14" y="49.56" width="9.01" height="1.18" fill="#fff"/><path d="M62.17,85.48c-6.85,0-7.87-6.27-7-10.58C56.22,69.31,60.49,61,62.59,61S69.1,73.06,69.5,76.4,69,85.48,62.17,85.48Z" fill="#c3d737"/><polygon points="66.51 76.54 62.53 80.72 62.44 77.44 65.76 72.77 62.41 76.27 62.32 73 64.46 69.82 62.3 72.28 62.11 65.2 61.92 72.22 59.71 69.82 61.9 73.07 61.81 76.19 58.53 72.77 61.78 77.34 61.69 80.65 57.78 76.54 61.66 81.77 61.35 90.67 62.87 90.67 62.56 81.86 66.51 76.54" fill="#47321f"/><polygon points="225.06 89.24 203.67 89.24 203.67 72.12 214.36 61.23 225.06 72.12 225.06 89.24" fill="#e44025"/><rect x="208.43" y="74.26" width="4.31" height="4.31" fill="#fff"/><rect x="215.99" y="74.26" width="4.31" height="4.31" fill="#fff"/><rect x="208.43" y="81.11" width="4.31" height="4.31" fill="#fff"/><rect x="215.99" y="81.11" width="4.31" height="4.31" fill="#fff"/></svg>